# xmcd
#
# Track frame offsets: 
#        187
#        40242
#        71305
#        102317
#        132332
#        156962
#        180097
#        208902
#
# Disc length: 3220 seconds
#
# Revision: 1
# Processed by: cddbd v1.5.2PL0 Copyright (c) Steve Scherf et al.
# Submitted via: ExactAudioCopyFreeDBPlugin 1.0
#
DISCID=680c9208
DTITLE=Bill Evans Trio - Since We Met
DYEAR=1974
DGENRE=Jazz
TTITLE0=Since We Met
TTITLE1=Midnight Mood
TTITLE2=See-Saw
TTITLE3=Sareen Jurer
TTITLE4=Time Remembered
TTITLE5=Turn Out The Stars
TTITLE6=But Beautiful
TTITLE7=Elsa
EXTD=YEAR: 1974
EXTT0=
EXTT1=
EXTT2=
EXTT3=
EXTT4=
EXTT5=
EXTT6=
EXTT7=
PLAYORDER=
